<svg id="svg" version="1.1" xmlns="http://www.w3.org/2000/svg" xmlns:xlink="http://www.w3.org/1999/xlink" width="400" height="400" viewBox="0, 0, 400,400"><g id="svgg"><path id="path0" d="M64.000 200.400 L 64.000 304.800 92.400 304.800 L 120.800 304.800 120.800 228.400 L 120.800 152.000 146.600 152.000 L 172.400 152.000 172.400 228.800 L 172.400 305.600 200.000 305.600 L 227.600 305.600 227.600 228.800 L 227.600 152.000 253.800 152.000 L 280.000 152.000 280.000 228.800 L 280.000 305.600 308.000 305.600 L 336.000 305.600 336.000 200.800 L 336.000 96.000 308.171 96.000 C 283.893 96.000,280.266 96.077,279.739 96.604 C 279.407 96.936,278.966 97.102,278.758 96.974 C 278.550 96.846,278.423 96.889,278.476 97.070 C 278.668 97.730,270.451 106.012,270.013 105.600 C 269.896 105.490,269.622 105.805,269.405 106.300 C 269.188 106.795,268.783 107.200,268.505 107.200 C 268.227 107.200,267.995 107.515,267.988 107.900 C 267.981 108.285,267.428 109.050,266.759 109.600 C 266.089 110.150,264.750 111.365,263.781 112.300 C 262.813 113.235,261.826 114.000,261.587 114.000 C 261.348 114.000,261.258 114.171,261.387 114.380 C 261.516 114.588,260.806 115.533,259.809 116.480 C 257.493 118.677,254.277 121.893,252.080 124.209 C 251.133 125.206,250.188 125.916,249.980 125.787 C 249.771 125.658,249.600 125.748,249.600 125.987 C 249.600 126.382,248.150 128.021,244.735 131.483 C 244.038 132.189,243.318 132.673,243.134 132.559 C 242.951 132.446,242.800 132.633,242.800 132.976 C 242.800 133.319,242.524 133.600,242.187 133.600 C 241.851 133.600,241.455 133.912,241.308 134.294 C 240.818 135.571,234.041 142.409,232.766 142.913 C 232.329 143.086,232.321 143.144,232.733 143.168 C 233.201 143.196,232.458 143.979,228.914 147.196 C 228.427 147.638,227.932 148.000,227.814 148.000 C 227.696 148.000,227.600 136.300,227.600 122.000 L 227.600 96.000 200.407 96.000 L 173.215 96.000 170.655 98.648 C 169.248 100.104,167.556 101.836,166.896 102.496 C 166.236 103.156,164.525 104.865,163.094 106.294 C 161.663 107.723,160.133 109.253,159.693 109.693 C 159.253 110.133,157.720 111.660,156.287 113.087 C 153.023 116.335,151.814 117.544,148.573 120.800 C 147.150 122.230,145.649 123.736,145.239 124.146 C 144.828 124.557,143.323 126.063,141.893 127.493 C 140.463 128.923,138.935 130.455,138.499 130.899 C 137.469 131.944,131.835 137.579,130.851 138.546 C 129.708 139.670,125.123 144.255,124.106 145.290 C 122.673 146.749,121.246 148.000,121.014 148.000 C 120.896 148.000,120.800 136.300,120.800 122.000 L 120.800 96.000 92.400 96.000 L 64.000 96.000 64.000 200.400 M119.400 200.400 L 119.400 303.800 92.400 303.800 L 65.400 303.800 65.298 200.800 C 65.241 144.150,65.281 97.574,65.386 97.297 C 65.537 96.899,71.171 96.816,92.489 96.897 L 119.400 97.000 119.400 200.400 M226.301 200.700 L 226.402 304.400 200.002 304.400 L 173.602 304.400 173.501 227.700 L 173.400 151.000 146.900 150.897 C 132.325 150.841,120.400 150.720,120.400 150.629 C 120.400 150.538,132.475 138.388,147.234 123.629 L 174.067 96.794 200.134 96.897 L 226.200 97.000 226.301 200.700 M334.701 200.700 L 334.802 304.400 308.002 304.400 L 281.202 304.400 281.101 227.700 L 281.000 151.000 254.300 150.897 C 239.244 150.839,227.600 150.641,227.600 150.442 C 227.600 150.248,239.587 138.098,254.238 123.442 L 280.875 96.794 307.738 96.897 L 334.600 97.000 334.701 200.700 " stroke="none" fill="#e4e4e4" fill-rule="evenodd"></path><path id="path1" d="M278.678 97.034 C 278.060 97.565,277.700 97.994,277.878 97.987 C 278.321 97.968,280.151 96.417,279.957 96.224 C 279.870 96.138,279.295 96.503,278.678 97.034 M65.386 97.297 C 65.281 97.574,65.241 144.150,65.298 200.800 L 65.400 303.800 92.400 303.800 L 119.400 303.800 119.400 200.400 L 119.400 97.000 92.489 96.897 C 71.171 96.816,65.537 96.899,65.386 97.297 M147.234 123.629 C 132.475 138.388,120.400 150.538,120.400 150.629 C 120.400 150.720,132.325 150.841,146.900 150.897 L 173.400 151.000 173.501 227.700 L 173.602 304.400 200.002 304.400 L 226.402 304.400 226.301 200.700 L 226.200 97.000 200.134 96.897 L 174.067 96.794 147.234 123.629 M254.238 123.442 C 239.587 138.098,227.600 150.248,227.600 150.442 C 227.600 150.641,239.244 150.839,254.300 150.897 L 281.000 151.000 281.101 227.700 L 281.202 304.400 308.002 304.400 L 334.802 304.400 334.701 200.700 L 334.600 97.000 307.738 96.897 L 280.875 96.794 254.238 123.442 M260.000 115.663 C 259.336 116.358,258.879 117.012,258.985 117.118 C 259.162 117.296,261.600 114.910,261.600 114.558 C 261.600 114.161,261.115 114.497,260.000 115.663 M251.263 124.400 C 250.097 125.515,249.761 126.000,250.158 126.000 C 250.510 126.000,252.896 123.562,252.718 123.385 C 252.612 123.279,251.958 123.736,251.263 124.400 M232.012 143.584 C 231.688 143.789,231.544 144.078,231.693 144.226 C 231.841 144.374,232.253 144.204,232.610 143.848 C 233.313 143.144,232.957 142.987,232.012 143.584 " stroke="none" fill="#fcb404" fill-rule="evenodd"></path></g></svg>