<?xml version="1.0" standalone="no"?>
<!DOCTYPE svg PUBLIC "-//W3C//DTD SVG 20010904//EN"
 "http://www.w3.org/TR/2001/REC-SVG-20010904/DTD/svg10.dtd">
<svg version="1.0" xmlns="http://www.w3.org/2000/svg"
 width="512.000000pt" height="512.000000pt" viewBox="0 0 512.000000 512.000000"
 preserveAspectRatio="xMidYMid meet">
<metadata>
Created by potrace 1.14, written by Peter Selinger 2001-2017
</metadata>
<g transform="translate(0.000000,512.000000) scale(0.100000,-0.100000)"
fill="#000000" stroke="none">
<path d="M2097 3593 l-717 -718 0 673 0 672 -645 0 -645 0 0 -1645 0 -1645
645 0 645 0 0 895 0 895 355 0 355 0 0 -897 0 -898 575 3 575 2 0 895 0 895
320 0 320 0 0 -895 0 -895 575 0 575 0 0 1685 0 1685 -182 0 -183 0 -712 -712
-713 -713 0 718 0 717 -213 0 -212 0 -718 -717z"/>
</g>
</svg>
